<?xml version="1.0" encoding="UTF-8"?>
<svg xmlns="http://www.w3.org/2000/svg" xmlns:xlink="http://www.w3.org/1999/xlink" width="512px" height="597px" viewBox="0 0 512 597" version="1.1">
<g id="surface1">
<path style=" stroke:none;fill-rule:nonzero;fill:rgb(0%,34.117648%,80.000001%);fill-opacity:1;" d="M 286.222656 452.34375 L 243.574219 454.378906 C 213.550781 432.046875 196.855469 421.117188 166.425781 377.273438 C 134.367188 331.390625 119.296875 312.726562 109.582031 275.800781 L 133.144531 233.585938 C 133.144531 233.585938 111.210938 7.964844 113.246094 6.742188 C 112.023438 7.558594 111.210938 7.964844 109.988281 8.78125 C -29.296875 96.003906 -31.335938 283.882812 75.894531 436.875 C 183.066406 589.867188 360.113281 652.375 489.625 550.90625 C 490.441406 550.089844 491.660156 549.277344 492.476562 548.464844 C 490.847656 550.148438 286.222656 452.34375 286.222656 452.34375 Z M 45.871094 281.09375 C 45.464844 281.5 45.058594 281.5 45.058594 281.5 Z M 211.515625 518.921875 L 212.332031 518.109375 Z M 211.515625 518.921875 "/>
<path style=" stroke:none;fill-rule:nonzero;fill:rgb(52.549022%,66.274512%,100%);fill-opacity:1;" d="M 45.871094 281.09375 L 45.058594 281.5 C 45.464844 281.5 45.464844 281.09375 45.871094 281.09375 Z M 148.96875 389.074219 C 179.398438 432.921875 213.550781 468.21875 243.574219 490.546875 L 286.628906 452.402344 C 258.992188 430.070312 229.378906 402.101562 195.285156 353.371094 C 161.1875 304.703125 145.363281 267.371094 133.550781 233.644531 L 84.855469 260.042969 C 94.164062 296.96875 116.503906 343.195312 148.96875 389.074219 Z M 148.96875 389.074219 "/>
<path style=" stroke:none;fill-rule:nonzero;fill:rgb(34.117648%,54.901963%,100%);fill-opacity:1;" d="M 108.359375 10.058594 C 89.683594 23.433594 76.707031 47.796875 81.945312 71.347656 C 81.945312 71.753906 81.945312 72.164062 82.351562 72.164062 C 99.398438 130.195312 109.582031 164.269531 133.496094 233.644531 C 161.128906 218.640625 213.902344 191.425781 213.902344 191.425781 C 239.910156 177.644531 250.03125 145.140625 235.835938 118.796875 L 187.546875 28.316406 C 173.757812 2.324219 141.640625 -7.386719 115.691406 5.988281 L 113.246094 7.210938 C 111.617188 8.023438 109.988281 9.246094 108.359375 10.058594 Z M 108.359375 10.058594 "/>
<path style=" stroke:none;fill-rule:nonzero;fill:rgb(34.117648%,54.901963%,100%);fill-opacity:1;" d="M 113.246094 7.210938 C 112.023438 8.023438 111.210938 8.429688 109.988281 9.246094 C 111.210938 8.429688 112.023438 7.617188 113.246094 7.210938 Z M 113.246094 7.210938 "/>
<path style=" stroke:none;fill-rule:nonzero;fill:rgb(52.549022%,66.274512%,100%);fill-opacity:1;" d="M 211.515625 518.921875 L 212.332031 518.109375 Z M 211.515625 518.921875 "/>
<path style=" stroke:none;fill-rule:nonzero;fill:rgb(34.117648%,54.901963%,100%);fill-opacity:1;" d="M 497.769531 471.824219 L 429.175781 395.53125 C 409.277344 373.609375 375.589844 371.574219 353.652344 391.460938 C 353.652344 391.460938 310.191406 431.640625 286.6875 452.75 C 343.53125 499.035156 371.921875 520.085938 420.679688 556.199219 C 421.085938 556.199219 421.085938 556.605469 421.496094 556.605469 C 441.800781 569.570312 468.96875 565.964844 488.113281 552.535156 L 493 548.871094 L 495.035156 547.242188 C 516.039062 527.066406 517.261719 493.746094 497.769531 471.824219 Z M 497.769531 471.824219 "/>
<path style=" stroke:none;fill-rule:nonzero;fill:rgb(34.117648%,54.901963%,100%);fill-opacity:1;" d="M 489.625 550.964844 C 490.441406 550.148438 491.660156 549.335938 492.476562 548.523438 C 491.660156 549.742188 490.441406 550.148438 489.625 550.964844 Z M 489.625 550.964844 "/>
</g>
</svg>
